<mxfile host="app.diagrams.net" modified="2023-04-09T16:29:04.570Z" agent="Mozilla/5.0 (Windows NT 10.0; Win64; x64) AppleWebKit/537.36 (KHTML, like Gecko) Chrome/111.0.0.0 Safari/537.36" etag="GNZhlwvgYfKR1DV17HFM" version="21.1.5" type="github">
  <diagram name="PÃ¡gina-1" id="Wb2sdP-foGY910zdMe5R">
    <mxGraphModel dx="880" dy="1653" grid="1" gridSize="10" guides="1" tooltips="1" connect="1" arrows="1" fold="1" page="1" pageScale="1" pageWidth="827" pageHeight="1169" math="0" shadow="0">
      <root>
        <mxCell id="0" />
        <mxCell id="1" parent="0" />
        <mxCell id="uxVfwHRj6BvU52MU_2wL-9" style="edgeStyle=orthogonalEdgeStyle;rounded=0;orthogonalLoop=1;jettySize=auto;html=1;exitX=1;exitY=0.5;exitDx=0;exitDy=0;exitPerimeter=0;" edge="1" parent="1" source="uxVfwHRj6BvU52MU_2wL-1">
          <mxGeometry relative="1" as="geometry">
            <mxPoint x="450" y="340" as="targetPoint" />
          </mxGeometry>
        </mxCell>
        <mxCell id="uxVfwHRj6BvU52MU_2wL-17" style="edgeStyle=orthogonalEdgeStyle;rounded=0;orthogonalLoop=1;jettySize=auto;html=1;exitX=0;exitY=0.5;exitDx=0;exitDy=0;exitPerimeter=0;entryX=1;entryY=0.5;entryDx=0;entryDy=0;labelBorderColor=none;" edge="1" parent="1" source="uxVfwHRj6BvU52MU_2wL-1" target="uxVfwHRj6BvU52MU_2wL-15">
          <mxGeometry relative="1" as="geometry" />
        </mxCell>
        <mxCell id="uxVfwHRj6BvU52MU_2wL-1" value="&lt;font style=&quot;font-size: 15px;&quot;&gt;X1&amp;gt;d&lt;/font&gt;" style="strokeWidth=2;html=1;shape=mxgraph.flowchart.decision;whiteSpace=wrap;" vertex="1" parent="1">
          <mxGeometry x="280" y="290" width="100" height="100" as="geometry" />
        </mxCell>
        <mxCell id="uxVfwHRj6BvU52MU_2wL-6" style="edgeStyle=orthogonalEdgeStyle;rounded=0;orthogonalLoop=1;jettySize=auto;html=1;entryX=0.5;entryY=0;entryDx=0;entryDy=0;" edge="1" parent="1" source="uxVfwHRj6BvU52MU_2wL-2" target="uxVfwHRj6BvU52MU_2wL-14">
          <mxGeometry relative="1" as="geometry">
            <mxPoint x="360" y="110" as="targetPoint" />
          </mxGeometry>
        </mxCell>
        <mxCell id="uxVfwHRj6BvU52MU_2wL-2" value="&lt;font style=&quot;font-size: 20px;&quot;&gt;&lt;i&gt;Start&lt;/i&gt;&lt;/font&gt;" style="strokeWidth=2;html=1;shape=mxgraph.flowchart.start_2;whiteSpace=wrap;fillColor=#dae8fc;strokeColor=#6c8ebf;" vertex="1" parent="1">
          <mxGeometry x="280" y="-10" width="100" height="100" as="geometry" />
        </mxCell>
        <mxCell id="uxVfwHRj6BvU52MU_2wL-4" value="&lt;i&gt;&lt;font style=&quot;font-size: 20px;&quot;&gt;Finish&lt;/font&gt;&lt;/i&gt;" style="strokeWidth=2;html=1;shape=mxgraph.flowchart.start_2;whiteSpace=wrap;align=center;fillColor=#fff2cc;strokeColor=#d6b656;" vertex="1" parent="1">
          <mxGeometry x="620" y="520" width="100" height="100" as="geometry" />
        </mxCell>
        <mxCell id="uxVfwHRj6BvU52MU_2wL-11" style="edgeStyle=orthogonalEdgeStyle;rounded=0;orthogonalLoop=1;jettySize=auto;html=1;exitX=1;exitY=0.5;exitDx=0;exitDy=0;exitPerimeter=0;" edge="1" parent="1" source="uxVfwHRj6BvU52MU_2wL-7">
          <mxGeometry relative="1" as="geometry">
            <mxPoint x="620" y="340" as="targetPoint" />
          </mxGeometry>
        </mxCell>
        <mxCell id="uxVfwHRj6BvU52MU_2wL-16" style="edgeStyle=orthogonalEdgeStyle;rounded=0;orthogonalLoop=1;jettySize=auto;html=1;exitX=0.5;exitY=0;exitDx=0;exitDy=0;exitPerimeter=0;entryX=0.5;entryY=1;entryDx=0;entryDy=0;" edge="1" parent="1" source="uxVfwHRj6BvU52MU_2wL-7" target="uxVfwHRj6BvU52MU_2wL-14">
          <mxGeometry relative="1" as="geometry" />
        </mxCell>
        <mxCell id="uxVfwHRj6BvU52MU_2wL-7" value="&lt;font style=&quot;font-size: 15px;&quot;&gt;X1&amp;lt;d&lt;/font&gt;" style="strokeWidth=2;html=1;shape=mxgraph.flowchart.decision;whiteSpace=wrap;" vertex="1" parent="1">
          <mxGeometry x="450" y="290" width="100" height="100" as="geometry" />
        </mxCell>
        <mxCell id="uxVfwHRj6BvU52MU_2wL-13" style="edgeStyle=orthogonalEdgeStyle;rounded=0;orthogonalLoop=1;jettySize=auto;html=1;exitX=0.5;exitY=1;exitDx=0;exitDy=0;exitPerimeter=0;entryX=0.5;entryY=0;entryDx=0;entryDy=0;entryPerimeter=0;" edge="1" parent="1" source="uxVfwHRj6BvU52MU_2wL-12" target="uxVfwHRj6BvU52MU_2wL-4">
          <mxGeometry relative="1" as="geometry" />
        </mxCell>
        <mxCell id="uxVfwHRj6BvU52MU_2wL-12" value="&lt;font style=&quot;font-size: 15px;&quot;&gt;X1=d&lt;/font&gt;" style="strokeWidth=2;html=1;shape=mxgraph.flowchart.decision;whiteSpace=wrap;" vertex="1" parent="1">
          <mxGeometry x="620" y="290" width="100" height="100" as="geometry" />
        </mxCell>
        <mxCell id="uxVfwHRj6BvU52MU_2wL-22" style="edgeStyle=orthogonalEdgeStyle;rounded=0;orthogonalLoop=1;jettySize=auto;html=1;exitX=0;exitY=0.5;exitDx=0;exitDy=0;entryX=1;entryY=0.5;entryDx=0;entryDy=0;" edge="1" parent="1" source="uxVfwHRj6BvU52MU_2wL-14" target="uxVfwHRj6BvU52MU_2wL-21">
          <mxGeometry relative="1" as="geometry" />
        </mxCell>
        <mxCell id="uxVfwHRj6BvU52MU_2wL-14" value="&lt;font style=&quot;font-size: 15px;&quot;&gt;Avanzar&lt;/font&gt;" style="rounded=1;whiteSpace=wrap;html=1;absoluteArcSize=1;arcSize=14;strokeWidth=2;fillColor=#d5e8d4;strokeColor=#82b366;" vertex="1" parent="1">
          <mxGeometry x="450" y="130" width="100" height="100" as="geometry" />
        </mxCell>
        <mxCell id="uxVfwHRj6BvU52MU_2wL-24" style="edgeStyle=orthogonalEdgeStyle;rounded=0;orthogonalLoop=1;jettySize=auto;html=1;exitX=0.5;exitY=0;exitDx=0;exitDy=0;entryX=0;entryY=0.5;entryDx=0;entryDy=0;" edge="1" parent="1" source="uxVfwHRj6BvU52MU_2wL-15" target="uxVfwHRj6BvU52MU_2wL-21">
          <mxGeometry relative="1" as="geometry">
            <Array as="points">
              <mxPoint x="160" y="180" />
            </Array>
          </mxGeometry>
        </mxCell>
        <mxCell id="uxVfwHRj6BvU52MU_2wL-15" value="&lt;font style=&quot;font-size: 15px;&quot;&gt;Retroceder&lt;/font&gt;" style="rounded=1;whiteSpace=wrap;html=1;absoluteArcSize=1;arcSize=14;strokeWidth=2;fillColor=#f8cecc;strokeColor=#b85450;" vertex="1" parent="1">
          <mxGeometry x="110" y="290" width="100" height="100" as="geometry" />
        </mxCell>
        <mxCell id="uxVfwHRj6BvU52MU_2wL-19" style="edgeStyle=orthogonalEdgeStyle;rounded=0;orthogonalLoop=1;jettySize=auto;html=1;exitX=1;exitY=0.5;exitDx=0;exitDy=0;entryX=0;entryY=0.5;entryDx=0;entryDy=0;entryPerimeter=0;" edge="1" parent="1" source="uxVfwHRj6BvU52MU_2wL-18" target="uxVfwHRj6BvU52MU_2wL-2">
          <mxGeometry relative="1" as="geometry" />
        </mxCell>
        <mxCell id="uxVfwHRj6BvU52MU_2wL-18" value="r=radio&lt;br&gt;g=ranuras&lt;br&gt;d=distancia" style="shape=parallelogram;html=1;strokeWidth=2;perimeter=parallelogramPerimeter;whiteSpace=wrap;rounded=1;arcSize=12;size=0.23;" vertex="1" parent="1">
          <mxGeometry x="60" y="-180" width="100" height="60" as="geometry" />
        </mxCell>
        <mxCell id="uxVfwHRj6BvU52MU_2wL-23" style="edgeStyle=orthogonalEdgeStyle;rounded=0;orthogonalLoop=1;jettySize=auto;html=1;exitX=0.5;exitY=1;exitDx=0;exitDy=0;entryX=0.5;entryY=0;entryDx=0;entryDy=0;entryPerimeter=0;" edge="1" parent="1" source="uxVfwHRj6BvU52MU_2wL-21" target="uxVfwHRj6BvU52MU_2wL-1">
          <mxGeometry relative="1" as="geometry" />
        </mxCell>
        <mxCell id="uxVfwHRj6BvU52MU_2wL-21" value="Datos del&lt;br&gt;encoder" style="shape=parallelogram;html=1;strokeWidth=2;perimeter=parallelogramPerimeter;whiteSpace=wrap;rounded=1;arcSize=12;size=0.23;" vertex="1" parent="1">
          <mxGeometry x="280" y="150" width="100" height="60" as="geometry" />
        </mxCell>
        <mxCell id="uxVfwHRj6BvU52MU_2wL-25" value="2" style="rounded=1;whiteSpace=wrap;html=1;absoluteArcSize=1;arcSize=14;strokeWidth=2;" vertex="1" parent="1">
          <mxGeometry x="364" y="-180" width="100" height="100" as="geometry" />
        </mxCell>
      </root>
    </mxGraphModel>
  </diagram>
</mxfile>
